<mxfile host="65bd71144e">
    <diagram id="lOQ_kaiEO-UQa3xqYUqN" name="Page-1">
        <mxGraphModel dx="1625" dy="476" grid="1" gridSize="10" guides="1" tooltips="1" connect="1" arrows="1" fold="1" page="1" pageScale="1" pageWidth="850" pageHeight="1100" math="0" shadow="0">
            <root>
                <mxCell id="0"/>
                <mxCell id="1" parent="0"/>
                <mxCell id="24" value="Voiture" style="swimlane;fontStyle=1;align=center;verticalAlign=top;childLayout=stackLayout;horizontal=1;startSize=26;horizontalStack=0;resizeParent=1;resizeParentMax=0;resizeLast=0;collapsible=1;marginBottom=0;" parent="1" vertex="1">
                    <mxGeometry x="40" y="555" width="160" height="80" as="geometry"/>
                </mxCell>
                <mxCell id="51" value="" style="line;strokeWidth=1;fillColor=none;align=left;verticalAlign=middle;spacingTop=-1;spacingLeft=3;spacingRight=3;rotatable=0;labelPosition=right;points=[];portConstraint=eastwest;" parent="24" vertex="1">
                    <mxGeometry y="26" width="160" height="54" as="geometry"/>
                </mxCell>
                <mxCell id="38" value="Vehicule" style="swimlane;fontStyle=1;align=center;verticalAlign=top;childLayout=stackLayout;horizontal=1;startSize=26;horizontalStack=0;resizeParent=1;resizeParentMax=0;resizeLast=0;collapsible=1;marginBottom=0;" parent="1" vertex="1">
                    <mxGeometry x="200" y="760" width="160" height="86" as="geometry"/>
                </mxCell>
                <mxCell id="39" value="- modele: string " style="text;strokeColor=none;fillColor=none;align=left;verticalAlign=top;spacingLeft=4;spacingRight=4;overflow=hidden;rotatable=0;points=[[0,0.5],[1,0.5]];portConstraint=eastwest;" parent="38" vertex="1">
                    <mxGeometry y="26" width="160" height="26" as="geometry"/>
                </mxCell>
                <mxCell id="40" value="- numImmatriculation: int" style="text;strokeColor=none;fillColor=none;align=left;verticalAlign=top;spacingLeft=4;spacingRight=4;overflow=hidden;rotatable=0;points=[[0,0.5],[1,0.5]];portConstraint=eastwest;" parent="38" vertex="1">
                    <mxGeometry y="52" width="160" height="26" as="geometry"/>
                </mxCell>
                <mxCell id="41" value="" style="line;strokeWidth=1;fillColor=none;align=left;verticalAlign=middle;spacingTop=-1;spacingLeft=3;spacingRight=3;rotatable=0;labelPosition=right;points=[];portConstraint=eastwest;" parent="38" vertex="1">
                    <mxGeometry y="78" width="160" height="8" as="geometry"/>
                </mxCell>
                <mxCell id="47" value="Implements" style="endArrow=block;endSize=16;endFill=0;html=1;" parent="1" source="24" target="96" edge="1">
                    <mxGeometry width="160" relative="1" as="geometry">
                        <mxPoint x="260" y="500" as="sourcePoint"/>
                        <mxPoint x="120" y="480" as="targetPoint"/>
                    </mxGeometry>
                </mxCell>
                <mxCell id="48" value="Implements" style="endArrow=block;endSize=16;endFill=0;html=1;" parent="1" source="53" target="104" edge="1">
                    <mxGeometry width="160" relative="1" as="geometry">
                        <mxPoint x="402" y="550" as="sourcePoint"/>
                        <mxPoint x="310" y="470" as="targetPoint"/>
                    </mxGeometry>
                </mxCell>
                <mxCell id="53" value="Bateau" style="swimlane;fontStyle=1;align=center;verticalAlign=top;childLayout=stackLayout;horizontal=1;startSize=26;horizontalStack=0;resizeParent=1;resizeParentMax=0;resizeLast=0;collapsible=1;marginBottom=0;" parent="1" vertex="1">
                    <mxGeometry x="218" y="546" width="160" height="34" as="geometry"/>
                </mxCell>
                <mxCell id="56" value="" style="line;strokeWidth=1;fillColor=none;align=left;verticalAlign=middle;spacingTop=-1;spacingLeft=3;spacingRight=3;rotatable=0;labelPosition=right;points=[];portConstraint=eastwest;" parent="53" vertex="1">
                    <mxGeometry y="26" width="160" height="8" as="geometry"/>
                </mxCell>
                <mxCell id="66" value="Extends" style="endArrow=block;endSize=16;endFill=0;html=1;" parent="1" source="67" edge="1">
                    <mxGeometry width="160" relative="1" as="geometry">
                        <mxPoint x="450" y="1010" as="sourcePoint"/>
                        <mxPoint x="376.1224489795918" y="920.0000000000002" as="targetPoint"/>
                    </mxGeometry>
                </mxCell>
                <mxCell id="67" value="ChatH2" style="swimlane;fontStyle=1;align=center;verticalAlign=top;childLayout=stackLayout;horizontal=1;startSize=26;horizontalStack=0;resizeParent=1;resizeParentMax=0;resizeLast=0;collapsible=1;marginBottom=0;" parent="1" vertex="1">
                    <mxGeometry x="378" y="1030" width="160" height="120" as="geometry"/>
                </mxCell>
                <mxCell id="68" value="- nbrMoustache: int " style="text;strokeColor=none;fillColor=none;align=left;verticalAlign=top;spacingLeft=4;spacingRight=4;overflow=hidden;rotatable=0;points=[[0,0.5],[1,0.5]];portConstraint=eastwest;" parent="67" vertex="1">
                    <mxGeometry y="26" width="160" height="26" as="geometry"/>
                </mxCell>
                <mxCell id="69" value="" style="line;strokeWidth=1;fillColor=none;align=left;verticalAlign=middle;spacingTop=-1;spacingLeft=3;spacingRight=3;rotatable=0;labelPosition=right;points=[];portConstraint=eastwest;" parent="67" vertex="1">
                    <mxGeometry y="52" width="160" height="8" as="geometry"/>
                </mxCell>
                <mxCell id="70" value="+ miauler(): void" style="text;strokeColor=none;fillColor=none;align=left;verticalAlign=top;spacingLeft=4;spacingRight=4;overflow=hidden;rotatable=0;points=[[0,0.5],[1,0.5]];portConstraint=eastwest;fontStyle=0" parent="67" vertex="1">
                    <mxGeometry y="60" width="160" height="30" as="geometry"/>
                </mxCell>
                <mxCell id="71" value="+ manger(): void" style="text;strokeColor=none;fillColor=none;align=left;verticalAlign=top;spacingLeft=4;spacingRight=4;overflow=hidden;rotatable=0;points=[[0,0.5],[1,0.5]];portConstraint=eastwest;fontStyle=0" parent="67" vertex="1">
                    <mxGeometry y="90" width="160" height="30" as="geometry"/>
                </mxCell>
                <mxCell id="73" value="Extends" style="endArrow=block;endSize=16;endFill=0;html=1;" parent="1" source="74" target="67" edge="1">
                    <mxGeometry width="160" relative="1" as="geometry">
                        <mxPoint x="513.88" y="1250" as="sourcePoint"/>
                        <mxPoint x="440.0024489795918" y="1160" as="targetPoint"/>
                    </mxGeometry>
                </mxCell>
                <mxCell id="74" value="AngoraChatH2" style="swimlane;fontStyle=1;align=center;verticalAlign=top;childLayout=stackLayout;horizontal=1;startSize=26;horizontalStack=0;resizeParent=1;resizeParentMax=0;resizeLast=0;collapsible=1;marginBottom=0;" parent="1" vertex="1">
                    <mxGeometry x="420" y="1250" width="160" height="64" as="geometry"/>
                </mxCell>
                <mxCell id="76" value="" style="line;strokeWidth=1;fillColor=none;align=left;verticalAlign=middle;spacingTop=-1;spacingLeft=3;spacingRight=3;rotatable=0;labelPosition=right;points=[];portConstraint=eastwest;" parent="74" vertex="1">
                    <mxGeometry y="26" width="160" height="8" as="geometry"/>
                </mxCell>
                <mxCell id="78" value="+ manger(): void" style="text;strokeColor=none;fillColor=none;align=left;verticalAlign=top;spacingLeft=4;spacingRight=4;overflow=hidden;rotatable=0;points=[[0,0.5],[1,0.5]];portConstraint=eastwest;fontStyle=0" parent="74" vertex="1">
                    <mxGeometry y="34" width="160" height="30" as="geometry"/>
                </mxCell>
                <mxCell id="80" value="Implements" style="endArrow=block;endSize=16;endFill=0;html=1;" edge="1" parent="1" source="91" target="104">
                    <mxGeometry width="160" relative="1" as="geometry">
                        <mxPoint x="444.7601098901098" y="511" as="sourcePoint"/>
                        <mxPoint x="560" y="460" as="targetPoint"/>
                    </mxGeometry>
                </mxCell>
                <mxCell id="91" value="Hydravion" style="swimlane;fontStyle=1;align=center;verticalAlign=top;childLayout=stackLayout;horizontal=1;startSize=26;horizontalStack=0;resizeParent=1;resizeParentMax=0;resizeLast=0;collapsible=1;marginBottom=0;" vertex="1" parent="1">
                    <mxGeometry x="410" y="553" width="160" height="34" as="geometry"/>
                </mxCell>
                <mxCell id="92" value="" style="line;strokeWidth=1;fillColor=none;align=left;verticalAlign=middle;spacingTop=-1;spacingLeft=3;spacingRight=3;rotatable=0;labelPosition=right;points=[];portConstraint=eastwest;" vertex="1" parent="91">
                    <mxGeometry y="26" width="160" height="8" as="geometry"/>
                </mxCell>
                <mxCell id="96" value="IRoulant {interface}" style="swimlane;fontStyle=1;align=center;verticalAlign=top;childLayout=stackLayout;horizontal=1;startSize=26;horizontalStack=0;resizeParent=1;resizeParentMax=0;resizeLast=0;collapsible=1;marginBottom=0;" vertex="1" parent="1">
                    <mxGeometry x="-50" y="310" width="160" height="60" as="geometry"/>
                </mxCell>
                <mxCell id="98" value="" style="line;strokeWidth=1;fillColor=none;align=left;verticalAlign=middle;spacingTop=-1;spacingLeft=3;spacingRight=3;rotatable=0;labelPosition=right;points=[];portConstraint=eastwest;" vertex="1" parent="96">
                    <mxGeometry y="26" width="160" height="8" as="geometry"/>
                </mxCell>
                <mxCell id="99" value="rouler()" style="text;strokeColor=none;fillColor=none;align=left;verticalAlign=top;spacingLeft=4;spacingRight=4;overflow=hidden;rotatable=0;points=[[0,0.5],[1,0.5]];portConstraint=eastwest;fontStyle=2" vertex="1" parent="96">
                    <mxGeometry y="34" width="160" height="26" as="geometry"/>
                </mxCell>
                <mxCell id="101" value="Trotinette" style="swimlane;fontStyle=1;align=center;verticalAlign=top;childLayout=stackLayout;horizontal=1;startSize=26;horizontalStack=0;resizeParent=1;resizeParentMax=0;resizeLast=0;collapsible=1;marginBottom=0;" vertex="1" parent="1">
                    <mxGeometry x="-170" y="530" width="160" height="80" as="geometry"/>
                </mxCell>
                <mxCell id="102" value="" style="line;strokeWidth=1;fillColor=none;align=left;verticalAlign=middle;spacingTop=-1;spacingLeft=3;spacingRight=3;rotatable=0;labelPosition=right;points=[];portConstraint=eastwest;" vertex="1" parent="101">
                    <mxGeometry y="26" width="160" height="54" as="geometry"/>
                </mxCell>
                <mxCell id="103" value="Implements" style="endArrow=block;endSize=16;endFill=0;html=1;" edge="1" parent="1" source="101" target="96">
                    <mxGeometry width="160" relative="1" as="geometry">
                        <mxPoint x="114.28571428571422" y="558" as="sourcePoint"/>
                        <mxPoint x="149.28571428571422" y="460" as="targetPoint"/>
                    </mxGeometry>
                </mxCell>
                <mxCell id="104" value="INaviguant {interface}" style="swimlane;fontStyle=1;align=center;verticalAlign=top;childLayout=stackLayout;horizontal=1;startSize=26;horizontalStack=0;resizeParent=1;resizeParentMax=0;resizeLast=0;collapsible=1;marginBottom=0;" vertex="1" parent="1">
                    <mxGeometry x="270" y="300" width="198" height="60" as="geometry"/>
                </mxCell>
                <mxCell id="105" value="" style="line;strokeWidth=1;fillColor=none;align=left;verticalAlign=middle;spacingTop=-1;spacingLeft=3;spacingRight=3;rotatable=0;labelPosition=right;points=[];portConstraint=eastwest;" vertex="1" parent="104">
                    <mxGeometry y="26" width="198" height="8" as="geometry"/>
                </mxCell>
                <mxCell id="106" value="naviguer()" style="text;strokeColor=none;fillColor=none;align=left;verticalAlign=top;spacingLeft=4;spacingRight=4;overflow=hidden;rotatable=0;points=[[0,0.5],[1,0.5]];portConstraint=eastwest;fontStyle=2" vertex="1" parent="104">
                    <mxGeometry y="34" width="198" height="26" as="geometry"/>
                </mxCell>
                <mxCell id="107" value="Extends" style="endArrow=block;endSize=16;endFill=0;html=1;" edge="1" parent="1" source="101" target="38">
                    <mxGeometry width="160" relative="1" as="geometry">
                        <mxPoint x="203.58974358974365" y="400" as="sourcePoint"/>
                        <mxPoint x="267.52136752136744" y="356" as="targetPoint"/>
                    </mxGeometry>
                </mxCell>
                <mxCell id="108" value="Avion" style="swimlane;fontStyle=1;align=center;verticalAlign=top;childLayout=stackLayout;horizontal=1;startSize=26;horizontalStack=0;resizeParent=1;resizeParentMax=0;resizeLast=0;collapsible=1;marginBottom=0;" vertex="1" parent="1">
                    <mxGeometry x="570" y="610" width="160" height="34" as="geometry"/>
                </mxCell>
                <mxCell id="109" value="" style="line;strokeWidth=1;fillColor=none;align=left;verticalAlign=middle;spacingTop=-1;spacingLeft=3;spacingRight=3;rotatable=0;labelPosition=right;points=[];portConstraint=eastwest;" vertex="1" parent="108">
                    <mxGeometry y="26" width="160" height="8" as="geometry"/>
                </mxCell>
                <mxCell id="111" value="IVolant {interface}" style="swimlane;fontStyle=1;align=center;verticalAlign=top;childLayout=stackLayout;horizontal=1;startSize=26;horizontalStack=0;resizeParent=1;resizeParentMax=0;resizeLast=0;collapsible=1;marginBottom=0;" vertex="1" parent="1">
                    <mxGeometry x="530" y="310" width="160" height="60" as="geometry"/>
                </mxCell>
                <mxCell id="112" value="" style="line;strokeWidth=1;fillColor=none;align=left;verticalAlign=middle;spacingTop=-1;spacingLeft=3;spacingRight=3;rotatable=0;labelPosition=right;points=[];portConstraint=eastwest;" vertex="1" parent="111">
                    <mxGeometry y="26" width="160" height="8" as="geometry"/>
                </mxCell>
                <mxCell id="113" value="voler()" style="text;strokeColor=none;fillColor=none;align=left;verticalAlign=top;spacingLeft=4;spacingRight=4;overflow=hidden;rotatable=0;points=[[0,0.5],[1,0.5]];portConstraint=eastwest;fontStyle=2" vertex="1" parent="111">
                    <mxGeometry y="34" width="160" height="26" as="geometry"/>
                </mxCell>
                <mxCell id="115" value="Implements" style="endArrow=block;endSize=16;endFill=0;html=1;" edge="1" parent="1" source="108" target="111">
                    <mxGeometry width="160" relative="1" as="geometry">
                        <mxPoint x="570" y="551" as="sourcePoint"/>
                        <mxPoint x="570" y="470" as="targetPoint"/>
                    </mxGeometry>
                </mxCell>
                <mxCell id="116" value="Implements" style="endArrow=block;endSize=16;endFill=0;html=1;" edge="1" parent="1" source="91" target="111">
                    <mxGeometry width="160" relative="1" as="geometry">
                        <mxPoint x="558.622754491018" y="600" as="sourcePoint"/>
                        <mxPoint x="407.7245508982037" y="480" as="targetPoint"/>
                    </mxGeometry>
                </mxCell>
                <mxCell id="122" value="Implements" style="endArrow=block;endSize=16;endFill=0;html=1;" edge="1" parent="1" source="91" target="96">
                    <mxGeometry width="160" relative="1" as="geometry">
                        <mxPoint x="397.0175438596493" y="604" as="sourcePoint"/>
                        <mxPoint x="375.2631578947369" y="480" as="targetPoint"/>
                    </mxGeometry>
                </mxCell>
                <mxCell id="123" value="Extends" style="endArrow=block;endSize=16;endFill=0;html=1;" edge="1" parent="1" source="24" target="38">
                    <mxGeometry width="160" relative="1" as="geometry">
                        <mxPoint x="-35.2715654952076" y="540" as="sourcePoint"/>
                        <mxPoint x="221.91693290734838" y="310" as="targetPoint"/>
                    </mxGeometry>
                </mxCell>
                <mxCell id="124" value="Extends" style="endArrow=block;endSize=16;endFill=0;html=1;" edge="1" parent="1" source="91" target="38">
                    <mxGeometry width="160" relative="1" as="geometry">
                        <mxPoint x="146.56804733727836" y="565" as="sourcePoint"/>
                        <mxPoint x="252.18934911242604" y="310" as="targetPoint"/>
                    </mxGeometry>
                </mxCell>
                <mxCell id="129" value="Extends" style="endArrow=block;endSize=16;endFill=0;html=1;" edge="1" parent="1" source="108" target="38">
                    <mxGeometry width="160" relative="1" as="geometry">
                        <mxPoint x="484.67811158798304" y="596.9999999999999" as="sourcePoint"/>
                        <mxPoint x="328.75536480686696" y="770" as="targetPoint"/>
                    </mxGeometry>
                </mxCell>
                <mxCell id="130" value="Extends" style="endArrow=block;endSize=16;endFill=0;html=1;" edge="1" parent="1" source="53" target="38">
                    <mxGeometry width="160" relative="1" as="geometry">
                        <mxPoint x="484.67811158798304" y="596.9999999999999" as="sourcePoint"/>
                        <mxPoint x="328.75536480686696" y="770" as="targetPoint"/>
                    </mxGeometry>
                </mxCell>
            </root>
        </mxGraphModel>
    </diagram>
</mxfile>